<svg width="24" height="24" viewBox="0 0 24 24" fill="none" xmlns="http://www.w3.org/2000/svg">
<path d="M12.0071 3.09752C11.7426 3.09722 11.4888 3.20217 11.3018 3.38921C11.1147 3.57625 11.0098 3.83002 11.0101 4.09454L11.003 11.003L4.08749 11.003C3.82297 11.0027 3.5692 11.1076 3.38216 11.2947C3.19512 11.4817 3.09017 11.7355 3.09047 12C3.09047 12.5515 3.53594 12.997 4.08749 12.997L11.003 12.997L11.003 19.9125C11.003 20.4641 11.4485 20.9095 12 20.9095C12.5516 20.9095 12.997 20.4641 12.997 19.9125L12.997 12.997L19.9125 12.997C20.4641 12.997 20.9096 12.5515 20.9096 12C20.9096 11.4484 20.4641 11.003 19.9125 11.003H12.997L12.997 4.08747C12.997 3.55006 12.5445 3.09752 12.0071 3.09752Z" fill="white"/>
</svg>
